<svg version="1.1" id="Layer_1" xmlns="http://www.w3.org/2000/svg" xmlns:xlink="http://www.w3.org/1999/xlink" x="0px" y="0px"
	 width="100%" viewBox="0 0 1024 1024" enable-background="new 0 0 1024 1024" xml:space="preserve">
<path fill="#FDFDFC" opacity="1.000000" stroke="none" 
	d="
M0.999998,732.000000 
	C1.000000,488.370026 1.000000,244.740067 1.000000,1.055052 
	C342.245239,1.055052 683.490479,1.055052 1025.000000,1.055052 
	C1025.000000,336.694641 1025.000000,672.389404 1024.533203,1008.542725 
	C1019.044128,1009.056396 1014.021912,1009.111450 1008.537354,1009.098389 
	C1003.049988,1009.075745 998.024963,1009.121338 992.537720,1009.097900 
	C987.053772,1009.073364 982.031921,1009.117920 976.546509,1009.099854 
	C971.057739,1009.069580 966.032593,1009.101990 960.541870,1009.085327 
	C955.184570,1009.036255 950.292847,1009.036255 945.000000,1009.036255 
	C945.000000,1014.807861 945.000000,1019.903931 945.000000,1025.000000 
	C630.448486,1025.000000 315.896942,1025.000000 1.000000,1025.000000 
	C1.000000,960.972351 1.000000,896.944153 1.464732,832.523254 
	C33.920593,832.120422 65.911919,832.057922 97.902573,832.176758 
	C101.298363,832.189392 102.929169,831.203796 104.017479,827.922913 
	C106.421089,820.677185 109.163872,813.535278 111.996605,806.442261 
	C119.581871,787.448975 127.412430,768.553040 134.912552,749.526550 
	C143.751358,727.103943 152.420013,704.613098 160.963943,682.076538 
	C162.226868,678.745300 163.812698,677.625671 167.399475,677.654663 
	C189.725891,677.835449 212.054489,677.744934 234.382370,677.745972 
	C307.864471,677.749268 381.346619,677.791809 454.828461,677.656921 
	C459.052673,677.649170 461.195282,678.904785 462.427612,682.895630 
	C464.093811,688.291565 466.156586,693.572571 468.211426,698.839600 
	C478.110138,724.212158 488.130768,749.537354 497.973755,774.931396 
	C504.639221,792.127930 511.267365,809.344299 517.492310,826.702332 
	C519.019531,830.960938 521.048950,832.196411 525.369263,832.184875 
	C570.023682,832.066040 614.678528,832.144165 659.333313,832.149475 
	C660.553406,832.149658 661.773560,831.949158 663.298523,831.815491 
	C659.860413,823.019653 656.674561,814.665100 653.337341,806.371460 
	C644.904480,785.414185 636.302551,764.524475 627.962646,743.530457 
	C621.522217,727.317932 615.430481,710.967102 609.075928,694.719971 
	C605.986938,686.821899 602.581909,679.047974 599.441895,671.169250 
	C593.301147,655.760986 587.111938,640.369202 581.256226,624.852295 
	C579.911865,621.289917 577.935425,620.735291 574.588440,620.742920 
	C533.432007,620.836426 492.275299,620.796997 451.118683,620.787598 
	C441.486847,620.785339 441.487671,620.777466 438.034332,611.979492 
	C437.184174,609.813599 436.335327,607.647156 435.472137,605.486389 
	C429.991272,591.767090 424.506561,578.049377 419.033386,564.356812 
	C417.477234,564.356812 416.483307,564.356995 415.489349,564.356689 
	C300.684448,564.321716 185.879501,564.309204 71.074768,564.147644 
	C67.495766,564.142639 66.192657,565.499207 65.070015,568.468872 
	C58.781612,585.103210 52.409882,601.706787 45.942066,618.272278 
	C32.778744,651.986328 19.547327,685.673889 6.311616,719.359619 
	C4.640687,723.612244 2.775279,727.788391 0.999998,732.000000 
M715.795532,179.915390 
	C715.780151,211.359909 715.731201,242.804535 715.811584,274.248810 
	C715.818176,276.833771 716.703979,279.416534 717.242981,282.693115 
	C720.844116,291.951508 727.379761,296.715942 737.535522,296.016876 
	C739.682739,295.869080 741.842712,295.906189 744.920288,296.032318 
	C784.129456,296.071289 823.338562,296.114288 862.547729,296.133514 
	C864.033569,296.134247 865.519592,295.904938 867.791138,296.052460 
	C879.043274,294.735077 886.617004,286.855316 886.826538,275.633362 
	C887.068909,262.654724 886.926025,249.668472 886.915100,236.685547 
	C886.891357,208.551422 886.881348,180.417206 886.788086,152.283279 
	C886.756287,142.701324 877.509705,129.633072 864.792236,129.892792 
	C822.185303,130.762909 779.549438,130.301102 736.925110,130.194580 
	C723.941223,130.162125 717.392395,136.832474 716.031067,150.072830 
	C715.049927,159.614914 715.951111,169.350510 715.795532,179.915390 
M169.735947,311.178467 
	C161.507019,331.143127 153.403473,351.160553 145.020981,371.060547 
	C131.038437,404.255066 116.872215,437.372223 102.821144,470.537994 
	C102.468407,471.370544 102.556824,472.389954 102.321938,474.256348 
	C242.793945,474.256348 382.856750,474.256348 522.767029,474.256348 
	C521.184021,471.041626 519.336060,467.715637 517.869080,464.229340 
	C513.552612,453.971619 509.437073,443.629456 505.151367,433.358551 
	C498.051941,416.344452 490.772766,399.404602 483.772736,382.349976 
	C477.594360,367.297180 471.831635,352.073639 465.637329,337.027588 
	C457.040588,316.145905 448.059937,295.421783 439.525421,274.515167 
	C430.987183,253.599396 422.868652,232.512695 414.433655,211.554245 
	C404.075623,185.817627 393.456024,160.185242 383.284058,134.375931 
	C381.833923,130.696579 380.191284,129.672134 376.507141,129.696701 
	C354.348663,129.844376 332.188690,129.773926 310.029236,129.776199 
	C289.202698,129.778320 268.376160,129.780548 247.549606,129.781189 
	C245.252945,129.781265 243.277939,129.472290 242.055099,132.572754 
	C229.733643,163.813095 217.252792,194.991028 204.701279,226.139969 
	C198.924301,240.476700 192.854935,254.695358 186.985611,268.995239 
	C181.312836,282.816254 175.726776,296.672821 169.735947,311.178467 
M776.500305,324.477631 
	C760.708618,324.477631 744.916931,324.477631 728.989624,324.477631 
	C728.989624,493.859680 728.989624,662.735352 728.989624,831.546387 
	C774.021606,831.546387 818.697083,831.546387 863.323975,831.546387 
	C863.323975,662.221619 863.323975,493.510193 863.323975,324.477142 
	C834.431030,324.477142 805.965698,324.477142 776.500305,324.477631 
z"/>
<path fill="#242021" opacity="1.000000" stroke="none" 
	d="
M0.999998,732.468628 
	C2.775279,727.788391 4.640687,723.612244 6.311616,719.359619 
	C19.547327,685.673889 32.778744,651.986328 45.942066,618.272278 
	C52.409882,601.706787 58.781612,585.103210 65.070015,568.468872 
	C66.192657,565.499207 67.495766,564.142639 71.074768,564.147644 
	C185.879501,564.309204 300.684448,564.321716 415.489349,564.356689 
	C416.483307,564.356995 417.477234,564.356812 419.033386,564.356812 
	C424.506561,578.049377 429.991272,591.767090 435.472137,605.486389 
	C436.335327,607.647156 437.184174,609.813599 438.034332,611.979492 
	C441.487671,620.777466 441.486847,620.785339 451.118683,620.787598 
	C492.275299,620.796997 533.432007,620.836426 574.588440,620.742920 
	C577.935425,620.735291 579.911865,621.289917 581.256226,624.852295 
	C587.111938,640.369202 593.301147,655.760986 599.441895,671.169250 
	C602.581909,679.047974 605.986938,686.821899 609.075928,694.719971 
	C615.430481,710.967102 621.522217,727.317932 627.962646,743.530457 
	C636.302551,764.524475 644.904480,785.414185 653.337341,806.371460 
	C656.674561,814.665100 659.860413,823.019653 663.298523,831.815491 
	C661.773560,831.949158 660.553406,832.149658 659.333313,832.149475 
	C614.678528,832.144165 570.023682,832.066040 525.369263,832.184875 
	C521.048950,832.196411 519.019531,830.960938 517.492310,826.702332 
	C511.267365,809.344299 504.639221,792.127930 497.973755,774.931396 
	C488.130768,749.537354 478.110138,724.212158 468.211426,698.839600 
	C466.156586,693.572571 464.093811,688.291565 462.427612,682.895630 
	C461.195282,678.904785 459.052673,677.649170 454.828461,677.656921 
	C381.346619,677.791809 307.864471,677.749268 234.382370,677.745972 
	C212.054489,677.744934 189.725891,677.835449 167.399475,677.654663 
	C163.812698,677.625671 162.226868,678.745300 160.963943,682.076538 
	C152.420013,704.613098 143.751358,727.103943 134.912552,749.526550 
	C127.412430,768.553040 119.581871,787.448975 111.996605,806.442261 
	C109.163872,813.535278 106.421089,820.677185 104.017479,827.922913 
	C102.929169,831.203796 101.298363,832.189392 97.902573,832.176758 
	C65.911919,832.057922 33.920593,832.120422 1.464732,832.065308 
	C1.000000,798.979126 1.000000,765.958191 0.999998,732.468628 
z"/>
<path fill="#FFFF66" opacity="1.000000" stroke="none" 
	d="
M945.466858,1025.000000 
	C945.000000,1019.903931 945.000000,1014.807861 945.000000,1009.036255 
	C950.292847,1009.036255 955.184570,1009.036255 960.538940,1009.539795 
	C961.001099,1015.028870 961.000549,1020.014404 961.000000,1025.000000 
	C955.977905,1025.000000 950.955811,1025.000000 945.466858,1025.000000 
z"/>
<path fill="#42FFFF" opacity="1.000000" stroke="none" 
	d="
M961.466858,1025.000000 
	C961.000549,1020.014404 961.001099,1015.028870 961.004517,1009.588867 
	C966.032593,1009.101990 971.057739,1009.069580 976.543335,1009.554810 
	C977.002502,1015.048279 977.001221,1020.024109 977.000000,1025.000000 
	C971.977905,1025.000000 966.955811,1025.000000 961.466858,1025.000000 
z"/>
<path fill="#51DA4C" opacity="1.000000" stroke="none" 
	d="
M977.466858,1025.000000 
	C977.001221,1020.024109 977.002502,1015.048279 977.006958,1009.617432 
	C982.031921,1009.117920 987.053772,1009.073364 992.537598,1009.553223 
	C992.999817,1015.051697 992.999939,1020.025879 993.000000,1025.000000 
	C987.977905,1025.000000 982.955811,1025.000000 977.466858,1025.000000 
z"/>
<path fill="#FF6E3C" opacity="1.000000" stroke="none" 
	d="
M993.466858,1025.000000 
	C992.999939,1020.025879 992.999817,1015.051697 992.999817,1009.622314 
	C998.024963,1009.121338 1003.049988,1009.075745 1008.537598,1009.553467 
	C1009.000061,1015.051147 1009.000000,1020.025574 1009.000000,1025.000000 
	C1003.977905,1025.000000 998.955811,1025.000000 993.466858,1025.000000 
z"/>
<path fill="#3C46FF" opacity="1.000000" stroke="none" 
	d="
M1009.471191,1025.000000 
	C1009.000000,1020.025574 1009.000061,1015.051147 1008.999939,1009.621643 
	C1014.021912,1009.111450 1019.044128,1009.056396 1024.533203,1009.000671 
	C1025.000000,1014.258423 1025.000000,1019.516846 1025.000000,1025.000000 
	C1019.982300,1025.000000 1014.962341,1025.000000 1009.471191,1025.000000 
z"/>
<path fill="#242021" opacity="1.000000" stroke="none" 
	d="
M169.919281,310.846130 
	C175.726776,296.672821 181.312836,282.816254 186.985611,268.995239 
	C192.854935,254.695358 198.924301,240.476700 204.701279,226.139969 
	C217.252792,194.991028 229.733643,163.813095 242.055099,132.572754 
	C243.277939,129.472290 245.252945,129.781265 247.549606,129.781189 
	C268.376160,129.780548 289.202698,129.778320 310.029236,129.776199 
	C332.188690,129.773926 354.348663,129.844376 376.507141,129.696701 
	C380.191284,129.672134 381.833923,130.696579 383.284058,134.375931 
	C393.456024,160.185242 404.075623,185.817627 414.433655,211.554245 
	C422.868652,232.512695 430.987183,253.599396 439.525421,274.515167 
	C448.059937,295.421783 457.040588,316.145905 465.637329,337.027588 
	C471.831635,352.073639 477.594360,367.297180 483.772736,382.349976 
	C490.772766,399.404602 498.051941,416.344452 505.151367,433.358551 
	C509.437073,443.629456 513.552612,453.971619 517.869080,464.229340 
	C519.336060,467.715637 521.184021,471.041626 522.767029,474.256348 
	C382.856750,474.256348 242.793945,474.256348 102.321938,474.256348 
	C102.556824,472.389954 102.468407,471.370544 102.821144,470.537994 
	C116.872215,437.372223 131.038437,404.255066 145.020981,371.060547 
	C153.403473,351.160553 161.507019,331.143127 169.919281,310.846130 
M345.499878,448.403534 
	C352.969055,448.403534 360.438202,448.403534 368.480865,448.403534 
	C349.902832,402.599609 331.597748,357.468719 312.689575,310.850891 
	C293.773407,357.190277 275.283508,402.485291 256.541260,448.398590 
	C286.568756,448.398590 315.534302,448.398590 345.499878,448.403534 
z"/>
<path fill="#242021" opacity="1.000000" stroke="none" 
	d="
M777.000366,324.477386 
	C805.965698,324.477142 834.431030,324.477142 863.323975,324.477142 
	C863.323975,493.510193 863.323975,662.221619 863.323975,831.546387 
	C818.697083,831.546387 774.021606,831.546387 728.989624,831.546387 
	C728.989624,662.735352 728.989624,493.859680 728.989624,324.477631 
	C744.916931,324.477631 760.708618,324.477631 777.000366,324.477386 
z"/>
<path fill="#0E0F5A" opacity="1.000000" stroke="none" 
	d="
M743.996765,295.858093 
	C741.842712,295.906189 739.682739,295.869080 737.535522,296.016876 
	C727.379761,296.715942 720.844116,291.951508 717.571472,282.290894 
	C718.504150,281.366669 719.588867,280.887421 719.639709,280.316193 
	C720.295776,272.944366 724.901794,269.119324 732.294189,267.104950 
	C729.537292,266.464661 725.268005,262.089325 724.364746,259.818604 
	C723.875244,258.587921 723.087402,257.466217 722.681213,256.215057 
	C722.337463,255.156265 721.801819,253.541977 722.293152,252.930542 
	C725.372803,249.097885 723.741028,245.905014 721.279907,243.133057 
	C722.302063,241.202133 723.811157,239.641357 723.838135,238.055359 
	C723.914673,233.556152 723.280334,229.049942 723.138611,224.539810 
	C723.066772,222.254669 723.531311,219.957642 723.606567,217.661179 
	C723.659241,216.052368 723.634277,214.404709 723.350647,212.827133 
	C721.613586,203.165039 719.842712,193.508194 717.953003,183.875137 
	C717.622070,182.188065 716.675110,180.621841 716.012695,178.999817 
	C715.951111,169.350510 715.049927,159.614914 716.031067,150.072830 
	C717.392395,136.832474 723.941223,130.162125 736.925110,130.194580 
	C779.549438,130.301102 822.185303,130.762909 864.792236,129.892792 
	C877.509705,129.633072 886.756287,142.701324 886.788086,152.283279 
	C886.881348,180.417206 886.891357,208.551422 886.915100,236.685547 
	C886.926025,249.668472 887.068909,262.654724 886.826538,275.633362 
	C886.617004,286.855316 879.043274,294.735077 867.398682,295.530762 
	C867.494690,291.239532 865.225769,289.320343 862.332703,287.596069 
	C861.060364,286.837738 859.095581,285.033783 859.329529,284.342224 
	C860.281555,281.529053 858.764282,280.568695 856.930420,279.175385 
	C855.921631,278.408936 855.622559,276.708344 855.454224,275.329773 
	C859.350891,275.230682 862.796936,275.230682 866.392029,275.230682 
	C866.392029,233.432068 866.392029,192.251419 866.392029,151.194626 
	C822.818909,151.194626 779.624756,151.194626 735.925354,151.194626 
	C735.925354,159.395447 735.925354,167.197159 735.587036,175.065063 
	C733.380432,176.789337 733.250916,178.141861 736.024231,179.394028 
	C736.059631,180.857727 735.999634,181.928421 735.553833,183.094147 
	C733.757263,186.912064 732.366577,190.633499 736.034363,194.393860 
	C736.066895,195.857712 736.004517,196.928452 735.650513,198.040436 
	C735.048828,198.403259 734.738770,198.724854 734.428650,199.046448 
	C734.933838,199.364548 735.439087,199.682663 736.040588,200.421417 
	C736.074097,202.561127 736.011292,204.280197 735.568970,206.088943 
	C734.531250,209.350174 733.795166,212.510712 733.342529,215.711334 
	C733.299988,216.011734 735.044739,216.564926 736.057983,217.436371 
	C736.089417,220.247803 736.022583,222.623611 735.586304,225.081146 
	C733.313782,227.726822 734.366272,232.561829 729.381042,232.757339 
	C729.634338,234.981033 729.061462,237.989594 730.291992,239.284775 
	C734.377380,243.584717 734.485596,244.117386 730.853882,249.007553 
	C729.602295,250.692856 728.658203,253.635590 729.261169,255.439926 
	C730.293030,258.527435 733.339722,257.989471 736.064514,257.459747 
	C736.163757,263.536316 736.163757,269.153900 736.163757,275.470581 
	C753.143372,275.470581 769.569885,275.470581 785.913574,275.743103 
	C784.300903,276.931091 781.635925,277.647034 781.433960,278.795837 
	C780.462341,284.324097 777.181824,283.351807 773.719055,282.019897 
	C771.335632,281.103149 769.845459,281.232239 767.806580,283.359985 
	C765.437744,285.831940 761.961975,287.243164 758.817200,289.208099 
	C758.088928,286.974792 757.615784,285.523773 756.842834,283.153320 
	C754.649109,286.193909 753.466492,289.436890 751.251404,290.473236 
	C748.808411,291.616211 745.417969,290.734070 741.932983,290.734070 
	C742.926453,293.200684 743.461609,294.529388 743.996765,295.858093 
M728.294250,242.436142 
	C728.010742,242.706726 727.727234,242.977295 727.443726,243.247894 
	C727.555908,243.365234 727.759460,243.590759 727.767090,243.584274 
	C728.066101,243.331757 728.347351,243.058121 728.294250,242.436142 
z"/>
<path fill="#12145C" opacity="1.000000" stroke="none" 
	d="
M855.003540,275.428925 
	C855.622559,276.708344 855.921631,278.408936 856.930420,279.175385 
	C858.764282,280.568695 860.281555,281.529053 859.329529,284.342224 
	C859.095581,285.033783 861.060364,286.837738 862.332703,287.596069 
	C865.225769,289.320343 867.494690,291.239532 867.005859,295.395935 
	C865.519592,295.904938 864.033569,296.134247 862.547729,296.133514 
	C823.338562,296.114288 784.129456,296.071289 744.458496,295.945190 
	C743.461609,294.529388 742.926453,293.200684 741.932983,290.734070 
	C745.417969,290.734070 748.808411,291.616211 751.251404,290.473236 
	C753.466492,289.436890 754.649109,286.193909 756.842834,283.153320 
	C757.615784,285.523773 758.088928,286.974792 758.817200,289.208099 
	C761.961975,287.243164 765.437744,285.831940 767.806580,283.359985 
	C769.845459,281.232239 771.335632,281.103149 773.719055,282.019897 
	C777.181824,283.351807 780.462341,284.324097 781.433960,278.795837 
	C781.635925,277.647034 784.300903,276.931091 786.371216,275.634949 
	C807.942200,275.312744 828.972778,275.371216 850.063232,275.677277 
	C850.747864,275.758881 851.372559,275.592865 852.366089,275.323639 
	C853.491089,275.289948 854.247314,275.359436 855.003540,275.428925 
z"/>
<path fill="#12145C" opacity="1.000000" stroke="none" 
	d="
M715.904114,179.457611 
	C716.675110,180.621841 717.622070,182.188065 717.953003,183.875137 
	C719.842712,193.508194 721.613586,203.165039 723.350647,212.827133 
	C723.634277,214.404709 723.659241,216.052368 723.606567,217.661179 
	C723.531311,219.957642 723.066772,222.254669 723.138611,224.539810 
	C723.280334,229.049942 723.914673,233.556152 723.838135,238.055359 
	C723.811157,239.641357 722.302063,241.202133 721.279907,243.133057 
	C723.741028,245.905014 725.372803,249.097885 722.293152,252.930542 
	C721.801819,253.541977 722.337463,255.156265 722.681213,256.215057 
	C723.087402,257.466217 723.875244,258.587921 724.364746,259.818604 
	C725.268005,262.089325 729.537292,266.464661 732.294189,267.104950 
	C724.901794,269.119324 720.295776,272.944366 719.639709,280.316193 
	C719.588867,280.887421 718.504150,281.366669 717.540649,281.944519 
	C716.703979,279.416534 715.818176,276.833771 715.811584,274.248810 
	C715.731201,242.804535 715.780151,211.359909 715.904114,179.457611 
z"/>
<path fill="#FCFCFC" opacity="1.000000" stroke="none" 
	d="
M344.999847,448.401062 
	C315.534302,448.398590 286.568756,448.398590 256.541260,448.398590 
	C275.283508,402.485291 293.773407,357.190277 312.689575,310.850891 
	C331.597748,357.468719 349.902832,402.599609 368.480865,448.403534 
	C360.438202,448.403534 352.969055,448.403534 344.999847,448.401062 
z"/>
<path fill="#FCFCFC" opacity="1.000000" stroke="none" 
	d="
M855.454163,275.329834 
	C854.247314,275.359436 853.491089,275.289948 852.038330,275.227051 
	C850.895569,275.298950 850.449402,275.364288 850.003296,275.429657 
	C828.972778,275.371216 807.942200,275.312744 786.454041,275.362427 
	C769.569885,275.470581 753.143372,275.470581 736.163757,275.470581 
	C736.163757,269.153900 736.163757,263.536316 736.168701,257.001038 
	C736.100952,245.722061 736.028320,235.360733 735.955688,224.999420 
	C736.022583,222.623611 736.089417,220.247803 736.160522,216.987778 
	C736.092712,212.735474 736.020630,209.367371 735.948547,205.999283 
	C736.011292,204.280197 736.074097,202.561127 736.138306,200.092484 
	C736.073914,198.895004 736.008057,198.447098 735.942139,197.999191 
	C736.004517,196.928452 736.066895,195.857712 736.132446,193.944504 
	C736.070374,189.734390 736.005005,186.366760 735.939575,182.999115 
	C735.999634,181.928421 736.059631,180.857727 736.120056,179.000656 
	C736.055420,177.142487 735.990356,176.070679 735.925293,174.998871 
	C735.925354,167.197159 735.925354,159.395447 735.925354,151.194626 
	C779.624756,151.194626 822.818909,151.194626 866.392029,151.194626 
	C866.392029,192.251419 866.392029,233.432068 866.392029,275.230682 
	C862.796936,275.230682 859.350891,275.230682 855.454163,275.329834 
z"/>
<path fill="#12145C" opacity="1.000000" stroke="none" 
	d="
M735.586243,225.081146 
	C736.028320,235.360733 736.100952,245.722061 736.069458,256.542053 
	C733.339722,257.989471 730.293030,258.527435 729.261169,255.439926 
	C728.658203,253.635590 729.602295,250.692856 730.853882,249.007553 
	C734.485596,244.117386 734.377380,243.584717 730.291992,239.284775 
	C729.061462,237.989594 729.634338,234.981033 729.381042,232.757339 
	C734.366272,232.561829 733.313782,227.726822 735.586243,225.081146 
z"/>
<path fill="#12145C" opacity="1.000000" stroke="none" 
	d="
M735.568970,206.088943 
	C736.020630,209.367371 736.092712,212.735474 736.062256,216.552155 
	C735.044739,216.564926 733.299988,216.011734 733.342529,215.711334 
	C733.795166,212.510712 734.531250,209.350174 735.568970,206.088943 
z"/>
<path fill="#12145C" opacity="1.000000" stroke="none" 
	d="
M735.553833,183.094147 
	C736.005005,186.366760 736.070374,189.734390 736.037598,193.551392 
	C732.366577,190.633499 733.757263,186.912064 735.553833,183.094147 
z"/>
<path fill="#12145C" opacity="1.000000" stroke="none" 
	d="
M735.587036,175.065063 
	C735.990356,176.070679 736.055420,177.142487 736.024658,178.607651 
	C733.250916,178.141861 733.380432,176.789337 735.587036,175.065063 
z"/>
<path fill="#12145C" opacity="1.000000" stroke="none" 
	d="
M728.462524,242.611694 
	C728.347351,243.058121 728.066101,243.331757 727.767090,243.584274 
	C727.759460,243.590759 727.555908,243.365234 727.443726,243.247879 
	C727.727234,242.977295 728.010742,242.706726 728.462524,242.611694 
z"/>
<path fill="#12145C" opacity="1.000000" stroke="none" 
	d="
M735.650513,198.040436 
	C736.008057,198.447098 736.073914,198.895004 736.041992,199.671844 
	C735.439087,199.682663 734.933838,199.364548 734.428650,199.046448 
	C734.738770,198.724854 735.048828,198.403259 735.650513,198.040436 
z"/>
<path fill="#0E0F5A" opacity="1.000000" stroke="none" 
	d="
M850.063232,275.677277 
	C850.449402,275.364288 850.895569,275.298950 851.669495,275.330200 
	C851.372559,275.592865 850.747864,275.758881 850.063232,275.677277 
z"/>
</svg>